<svg width="1600" height="900" viewBox="0 0 1600 900" fill="none" xmlns="http://www.w3.org/2000/svg">
  <defs>
    <linearGradient id="g" x1="0" y1="0" x2="1600" y2="900" gradientUnits="userSpaceOnUse">
      <stop stop-color="#09090B"/>
      <stop offset="1" stop-color="#111827"/>
    </linearGradient>
    <filter id="soft" x="-20%" y="-20%" width="140%" height="140%">
      <feGaussianBlur stdDeviation="18"/>
    </filter>
  </defs>

  <rect width="1600" height="900" fill="url(#g)"/>

  <g opacity="0.35" filter="url(#soft)">
    <rect x="210" y="230" width="420" height="240" rx="28" fill="#27272A"/>
    <rect x="660" y="310" width="520" height="280" rx="28" fill="#1F2937"/>
    <rect x="1180" y="260" width="250" height="180" rx="28" fill="#27272A"/>
  </g>

  <g opacity="0.9">
    <rect x="220" y="250" width="420" height="240" rx="26" stroke="#3F3F46" stroke-width="2"/>
    <rect x="670" y="330" width="520" height="280" rx="26" stroke="#334155" stroke-width="2"/>
    <rect x="1190" y="280" width="250" height="180" rx="26" stroke="#3F3F46" stroke-width="2"/>

    <path d="M260 305 H510" stroke="#52525B" stroke-width="6" stroke-linecap="round"/>
    <path d="M260 345 H590" stroke="#3F3F46" stroke-width="6" stroke-linecap="round"/>

    <path d="M720 390 H1080" stroke="#64748B" stroke-width="6" stroke-linecap="round"/>
    <path d="M720 430 H1120" stroke="#334155" stroke-width="6" stroke-linecap="round"/>
    <path d="M720 470 H980" stroke="#334155" stroke-width="6" stroke-linecap="round"/>

    <path d="M1225 325 H1385" stroke="#52525B" stroke-width="6" stroke-linecap="round"/>
    <path d="M1225 365 H1325" stroke="#3F3F46" stroke-width="6" stroke-linecap="round"/>
  </g>

  <g opacity="0.9">
    <text x="120" y="165" fill="#FAFAFA" font-family="ui-sans-serif, system-ui, -apple-system, Segoe UI, Roboto" font-size="54" font-weight="650">
      Ship small.
    </text>
    <text x="120" y="220" fill="#A1A1AA" font-family="ui-sans-serif, system-ui, -apple-system, Segoe UI, Roboto" font-size="28">
      1 core feature + 1 nice-to-have.
    </text>
  </g>
</svg>

